<?xml version="1.0" encoding="iso-8859-1"?>
<!-- Generator: Adobe Illustrator 19.0.0, SVG Export Plug-In . SVG Version: 6.00 Build 0)  -->
<svg version="1.1" id="Capa_1" xmlns="http://www.w3.org/2000/svg" xmlns:xlink="http://www.w3.org/1999/xlink" x="0px" y="0px"
	 viewBox="0 0 403.461 403.461" style="enable-background:new 0 0 403.461 403.461;" xml:space="preserve">
<polygon style="fill:#D4E1F4;" points="387.62,109.845 331.718,165.747 237.155,71.184 293.057,15.282 "/>
<polygon style="fill:#00BBD3;" points="136.322,360.62 15.636,387.265 42.281,266.58 "/>
<polygon style="fill:#4DCFE0;" points="331.718,165.747 136.322,360.62 42.281,266.58 237.155,71.184 "/>
<path style="fill:#3A2C51;" d="M398.592,98.873L304.028,4.31c-5.747-5.747-16.196-5.747-21.943,0l-55.902,55.902L31.31,255.608
	c-2.09,2.09-3.657,4.702-4.18,7.837L0.485,384.131c-1.045,5.224,0.522,10.449,4.18,14.629c3.135,3.135,6.792,4.702,10.971,4.702
	c1.045,0,2.09,0,3.135-0.522l120.686-26.645c3.135-0.522,5.747-2.09,7.837-4.18L342.69,176.718l55.902-55.902
	C404.861,114.547,404.861,105.143,398.592,98.873z M237.155,93.127l72.098,72.098L136.322,338.678L64.224,266.58L237.155,93.127z
	 M51.163,297.927l53.812,53.812L36.012,366.89L51.163,297.927z M331.718,143.804l-72.62-72.62l33.959-33.959l72.62,72.62
	L331.718,143.804z"/>
<g>
</g>
<g>
</g>
<g>
</g>
<g>
</g>
<g>
</g>
<g>
</g>
<g>
</g>
<g>
</g>
<g>
</g>
<g>
</g>
<g>
</g>
<g>
</g>
<g>
</g>
<g>
</g>
<g>
</g>
</svg>
